<?xml version="1.0" encoding="iso-8859-1"?>
<!-- Generator: Adobe Illustrator 19.0.0, SVG Export Plug-In . SVG Version: 6.00 Build 0)  -->
<svg version="1.1" id="Capa_1" xmlns="http://www.w3.org/2000/svg" xmlns:xlink="http://www.w3.org/1999/xlink" x="0px" y="0px"
	 viewBox="0 0 512 512" style="enable-background:new 0 0 512 512;" xml:space="preserve">
<path style="fill:#FF6554;" d="M399.997,67.152c-10.843-10.843-28.374-10.327-28.374-10.327s1.002-17.045-10.328-28.375
	c-11.02-11.02-30.172-9.866-43.055,1.84c-7.277,6.613-10.558,13.902-12.521,21.514c-3.923,15.206,6.534,64.464,6.534,64.464
	s49.064,10.429,64.391,6.461c7.64-1.978,14.901-5.244,21.514-12.521C409.863,97.324,411.018,78.173,399.997,67.152"/>
<path style="fill:#F1DA8D;" d="M416.22,159.611c-0.55-1.44-1.15-2.85-1.78-4.26c-6.328-14.25-16.119-26.618-28.302-36.047
	c-3.083,1.51-6.254,2.585-9.494,3.424c-15.326,3.968-64.391-6.461-64.391-6.461s-10.007-47.146-6.766-63.425
	C293.553,38.87,275.818,30.001,256,30.001c-35.94,0-65.07,29.13-65.07,65.07c0,1.59,0.08,3.16,0.19,4.72
	c-33.45,0.55-62.63,18.64-78.72,45.47c-2.17,3.61-4.11,7.38-5.79,11.29c-4.84,11.3-7.52,23.74-7.52,36.81c0,0.97,0.02,1.93,0.05,2.9
	c4.48,6.17,7.13,13.77,7.13,21.98c0-10.33,4.19-19.69,10.96-26.47c6.78-6.77,16.13-10.96,26.47-10.96
	c20.68,0,37.44,16.76,37.44,37.43c0-10.33,4.19-19.69,10.96-26.47c6.77-6.77,16.13-10.96,26.47-10.96
	c20.67,0,37.43,16.76,37.43,37.43c0-10.33,4.19-19.69,10.96-26.47c6.78-6.77,16.14-10.96,26.47-10.96
	c20.68,0,37.43,16.76,37.43,37.43c0-10.33,4.19-19.69,10.96-26.47c6.78-6.77,16.14-10.96,26.48-10.96
	c20.67,0,37.43,16.76,37.43,37.43c0-12.95,6.58-24.36,16.57-31.08C421.67,177.511,419.57,168.261,416.22,159.611z"/>
<path style="fill:#FFA69F;" d="M191.12,99.791c-0.11-1.56-0.19-3.13-0.19-4.72c0-8.704,1.721-17.001,4.821-24.589L193.238,10
	h-36.465l3.93,95.393C170.218,101.934,180.45,99.966,191.12,99.791z"/>
<path style="fill:#4AD9D9;" d="M160.704,105.393l-0.416-10.095l-42.969-66.302L86.694,48.843l46.722,72.093
	c8.192-6.712,17.55-12.051,27.718-15.69C160.992,105.297,160.846,105.341,160.704,105.393z"/>
<path style="fill:#FFA69F;" d="M191.255,332.647L208.369,502h95.263l17.114-169.353c3.768-37.286-25.503-69.665-62.98-69.665h-3.531
	C216.758,262.983,187.487,295.361,191.255,332.647z"/>
<g>
	<path style="fill:#FF7C6E;" d="M191.203,320.533l-0.217-1.802c-3.822-31.81-30.809-55.748-62.848-55.748l0,0
		c-43.089,0-73.586,42.117-60.139,83.054L119.228,502h89.141l-17.114-169.353C190.839,328.535,190.848,324.488,191.203,320.533z"/>
	<path style="fill:#FF7C6E;" d="M383.862,262.983L383.862,262.983c-32.039,0-59.026,23.938-62.848,55.748l-0.216,1.801
		c0.355,3.956,0.363,8.003-0.052,12.115L303.631,502h89.141l51.229-155.963C457.448,305.099,426.951,262.983,383.862,262.983z"/>
</g>
<path style="fill:#8E5644;" d="M128.138,262.983L128.138,262.983c27.759,0,51.714,17.976,60.107,43.466
	c0.654-1.123,1.288-2.259,1.885-3.418c1.007,1.964,2.105,3.874,3.277,5.731c7.553-26.218,31.702-45.779,60.827-45.779h3.531
	c29.123,0,53.271,19.559,60.826,45.775c1.172-1.857,2.272-3.763,3.279-5.727c0.595,1.161,1.229,2.299,1.882,3.424
	c8.392-25.493,32.348-43.472,60.109-43.472l0,0c31.915,0,56.916,23.107,62.275,51.725c9.744-12.528,15.563-28.262,15.563-45.367
	c0-11.46-2.62-22.31-7.28-31.99c-6.92-14.4-18.36-26.2-32.5-33.59c0.06-0.62,0.12-1.25,0.18-1.89c0.26-2.8,0.4-5.64,0.4-8.51
	c0-2.08-0.07-4.15-0.2-6.2c-9.99,6.72-16.57,18.13-16.57,31.08c0-20.67-16.76-37.43-37.43-37.43c-10.34,0-19.7,4.19-26.48,10.96
	c-6.77,6.78-10.96,16.14-10.96,26.47c0-20.67-16.75-37.43-37.43-37.43c-10.33,0-19.69,4.19-26.47,10.96
	c-6.77,6.78-10.96,16.14-10.96,26.47c0-20.67-16.76-37.43-37.43-37.43c-10.34,0-19.7,4.19-26.47,10.96
	c-6.77,6.78-10.96,16.14-10.96,26.47c0-20.67-16.76-37.43-37.44-37.43c-10.34,0-19.69,4.19-26.47,10.96
	c-6.77,6.78-10.96,16.14-10.96,26.47c0-8.21-2.65-15.81-7.13-21.98c0.04,1.15,0.09,2.31,0.17,3.46c-2.55,0.92-5.04,1.97-7.45,3.16
	c-14.95,7.28-27.08,19.47-34.28,34.47c-4.67,9.68-7.28,20.53-7.28,31.99c0,17.101,5.816,32.84,15.562,45.371
	C71.22,286.092,96.221,262.983,128.138,262.983z"/>
<path d="M391.69,339.39c-0.659,0-1.31-0.059-1.96-0.189c-0.64-0.131-1.27-0.32-1.87-0.57s-1.18-0.561-1.729-0.92
	c-0.54-0.36-1.061-0.78-1.521-1.24s-0.88-0.979-1.239-1.52c-0.36-0.551-0.67-1.131-0.92-1.73s-0.44-1.229-0.57-1.87
	c-0.13-0.649-0.2-1.3-0.2-1.96c0-0.649,0.07-1.3,0.2-1.95c0.13-0.64,0.32-1.27,0.57-1.87s0.56-1.18,0.92-1.729
	c0.359-0.54,0.779-1.06,1.239-1.521c0.46-0.46,0.98-0.88,1.521-1.239c0.55-0.36,1.13-0.67,1.729-0.92
	c0.601-0.25,1.23-0.44,1.87-0.57c1.29-0.26,2.62-0.26,3.91,0c0.641,0.13,1.26,0.32,1.87,0.57c0.6,0.25,1.18,0.56,1.72,0.92
	c0.551,0.359,1.06,0.779,1.52,1.239c0.47,0.461,0.88,0.98,1.25,1.521c0.359,0.55,0.67,1.13,0.92,1.729
	c0.25,0.601,0.439,1.23,0.57,1.87c0.13,0.65,0.19,1.301,0.19,1.95c0,0.66-0.06,1.311-0.19,1.96c-0.131,0.641-0.32,1.27-0.57,1.87
	s-0.561,1.18-0.92,1.73c-0.37,0.54-0.78,1.06-1.25,1.52c-0.46,0.46-0.97,0.88-1.52,1.24c-0.54,0.359-1.12,0.67-1.72,0.92
	c-0.61,0.25-1.229,0.439-1.87,0.57C392.99,339.33,392.34,339.39,391.69,339.39z"/>
<path d="M120.31,339.39c-2.63,0-5.2-1.059-7.07-2.92c-0.46-0.46-0.87-0.979-1.24-1.52c-0.36-0.551-0.67-1.131-0.92-1.73
	s-0.44-1.229-0.57-1.87c-0.13-0.649-0.19-1.3-0.19-1.96c0-0.649,0.06-1.3,0.19-1.95c0.13-0.64,0.32-1.27,0.57-1.87
	s0.56-1.18,0.92-1.729c0.36-0.54,0.78-1.06,1.24-1.521c0.46-0.46,0.98-0.88,1.52-1.239c0.55-0.36,1.13-0.67,1.73-0.92
	s1.23-0.44,1.87-0.57c1.29-0.26,2.62-0.26,3.91,0c0.64,0.13,1.27,0.32,1.87,0.57s1.18,0.56,1.73,0.92
	c0.54,0.359,1.06,0.779,1.52,1.239c1.86,1.87,2.93,4.44,2.93,7.07c0,0.66-0.07,1.311-0.2,1.96c-0.13,0.641-0.32,1.27-0.57,1.87
	s-0.56,1.18-0.92,1.73c-0.36,0.54-0.78,1.06-1.24,1.52c-0.46,0.46-0.98,0.88-1.52,1.24c-0.55,0.359-1.13,0.67-1.73,0.92
	c-0.6,0.25-1.23,0.439-1.87,0.57C121.62,339.33,120.97,339.39,120.31,339.39z"/>
<path d="M471.7,269.341c0-12.706-2.782-24.929-8.267-36.32c-6.829-14.211-17.72-26.357-31.055-34.768
	c0.081-1.642,0.121-3.276,0.121-4.891c0-2.227-0.074-4.526-0.221-6.833c0-0.003-0.001-0.005-0.001-0.008c0-0.004,0-0.007,0-0.011
	c-0.683-10.465-2.944-20.72-6.722-30.48c-0.567-1.484-1.2-2.999-1.978-4.735c-5.126-11.544-12.391-22.093-21.313-31.054
	c1.107-1.019,2.208-2.114,3.293-3.308c15.579-17.146,16.242-42.119,1.51-56.852c-8.111-8.11-18.565-11.282-26.105-12.508
	c-1.177-7.51-4.33-17.927-12.596-26.193c-14.732-14.731-39.703-14.068-56.853,1.511c-4.496,4.085-7.692,8.377-10.017,12.493
	C288.532,25.487,272.602,20.001,256,20.001c-19.911,0-38.036,7.791-51.487,20.485l-1.284-30.901C203.007,4.228,198.6,0,193.238,0
	h-36.465c-2.724,0-5.33,1.111-7.215,3.076c-1.886,1.965-2.888,4.614-2.776,7.336l2.009,48.759L125.71,23.557
	c-1.442-2.226-3.71-3.787-6.303-4.341c-2.594-0.557-5.301-0.055-7.527,1.388L81.255,40.451c-2.226,1.442-3.787,3.71-4.341,6.304
	s-0.055,5.301,1.388,7.526l42.042,64.871c-6.282,6.154-11.845,13.17-16.516,20.957c-2.417,4.021-4.572,8.225-6.411,12.505
	c-5.495,12.831-8.294,26.46-8.325,40.513c-0.542,0.252-1.086,0.503-1.611,0.763c-16.943,8.251-30.764,22.148-38.908,39.115
	c-5.49,11.38-8.273,23.605-8.273,36.335c0,17.328,5.183,33.782,15.008,47.876c-1.304,10.537-0.274,21.393,3.19,31.941
	l51.229,155.964c1.348,4.104,5.18,6.879,9.5,6.879h89.141h95.263h89.141c4.32,0,8.152-2.774,9.501-6.879l51.229-155.963
	c3.465-10.55,4.495-21.407,3.19-31.946C466.518,303.118,471.7,286.665,471.7,269.341z M324.965,37.691
	c9.08-8.25,22.206-9.224,29.26-2.17c7.902,7.902,7.418,20.652,7.416,20.717c-0.165,2.8,0.828,5.542,2.783,7.555
	c1.954,2.013,4.652,3.116,7.442,3.029c0.14-0.008,13.492-0.167,21.06,7.4c7.054,7.054,6.08,20.18-2.17,29.26
	c-2.725,2.999-5.679,5.238-9.27,6.956c-0.072,0.035-0.149,0.067-0.222,0.101c-0.596,0.28-1.212,0.544-1.846,0.797
	c-0.175,0.07-0.352,0.138-0.53,0.206c-0.563,0.215-1.143,0.418-1.738,0.614c-0.199,0.065-0.393,0.134-0.597,0.197
	c-0.779,0.244-1.578,0.478-2.415,0.695c-0.503,0.13-1.077,0.238-1.715,0.325c-9.568,1.306-33.59-2.082-51.686-5.589
	c-0.11-0.568-0.22-1.144-0.33-1.723c-0.067-0.353-0.134-0.714-0.201-1.072c-0.046-0.245-0.092-0.489-0.138-0.735
	c-0.058-0.312-0.116-0.63-0.173-0.946c-0.057-0.312-0.115-0.624-0.171-0.938c-0.043-0.239-0.086-0.481-0.13-0.722
	c-0.075-0.42-0.15-0.839-0.225-1.262c-0.024-0.136-0.048-0.273-0.072-0.409c-0.097-0.551-0.193-1.104-0.288-1.659
	c-0.002-0.012-0.004-0.025-0.006-0.037c-1.775-10.345-3.305-21.385-3.914-30.102c-0.008-0.114-0.016-0.229-0.024-0.342
	c-0.017-0.25-0.031-0.492-0.046-0.737c-0.315-5.174-0.28-9.507,0.277-12.303c0.001-0.003,0.001-0.007,0.001-0.01
	c0.035-0.164,0.068-0.334,0.107-0.485C317.273,47.05,320.133,42.083,324.965,37.691z M183.645,20l2.028,48.798
	c-0.039,0.105-0.073,0.211-0.111,0.315c-0.109,0.293-0.208,0.591-0.313,0.886c-0.257,0.725-0.505,1.452-0.74,2.182
	c-0.114,0.355-0.225,0.712-0.334,1.07c-0.227,0.744-0.439,1.491-0.642,2.241c-0.08,0.297-0.165,0.592-0.242,0.89
	c-0.272,1.055-0.523,2.114-0.748,3.179c-0.022,0.103-0.039,0.208-0.06,0.312c-0.201,0.972-0.38,1.948-0.541,2.928
	c-0.05,0.3-0.094,0.602-0.14,0.904c-0.126,0.829-0.239,1.66-0.337,2.494c-0.035,0.297-0.073,0.593-0.104,0.891
	c-0.117,1.106-0.218,2.214-0.286,3.328c-3.688,0.408-7.324,1.018-10.903,1.804L167.194,20H183.645z M114.365,42.825l36.043,55.616
	l0.011,0.267c-5.008,2.229-9.823,4.853-14.405,7.849l-35.491-54.762L114.365,42.825z M115.797,160.499
	c1.479-3.443,3.22-6.837,5.179-10.095c4.902-8.175,11.026-15.293,18.057-21.197c0.247-0.168,0.488-0.346,0.721-0.537
	c7.409-6.07,15.736-10.784,24.749-14.01c0.002-0.001,0.003-0.001,0.005-0.002c6.31-2.259,12.843-3.743,19.504-4.43
	c0.255-0.026,0.51-0.05,0.765-0.073c0.813-0.076,1.628-0.139,2.444-0.192c0.294-0.019,0.588-0.041,0.883-0.057
	c1.055-0.057,2.113-0.1,3.173-0.117c0.003,0,0.005,0,0.008,0c0.072-0.001,0.143-0.012,0.215-0.015
	c1.639-0.063,3.223-0.518,4.62-1.324c0.875-0.505,1.676-1.144,2.372-1.904c1.855-2.024,2.797-4.724,2.603-7.463
	c-0.113-1.591-0.165-2.866-0.165-4.014c0-0.928,0.025-1.85,0.07-2.766c0.013-0.263,0.04-0.523,0.057-0.785
	c0.042-0.657,0.085-1.313,0.15-1.963c0.029-0.292,0.072-0.582,0.106-0.874c0.071-0.615,0.143-1.23,0.234-1.84
	c0.046-0.31,0.106-0.617,0.158-0.926c0.098-0.583,0.196-1.167,0.312-1.743c0.067-0.331,0.146-0.66,0.219-0.989
	c0.121-0.547,0.241-1.094,0.378-1.634c0.09-0.354,0.192-0.705,0.289-1.057c0.14-0.509,0.279-1.019,0.433-1.522
	c0.113-0.369,0.238-0.735,0.359-1.102c0.16-0.484,0.318-0.968,0.49-1.445c0.128-0.354,0.267-0.706,0.403-1.058
	c7.945-20.66,27.987-35.366,51.412-35.366c14.712,0,28.712,5.87,39.023,16.234c-0.095,1.469-0.136,3.04-0.14,4.675
	c-0.001,0.201,0,0.405,0.001,0.607c0.002,0.431,0.005,0.864,0.012,1.304c0.007,0.514,0.019,1.033,0.033,1.558
	c0.002,0.065,0.004,0.13,0.006,0.195c0.564,19.368,5.851,45.763,7.417,53.204c0.046,0.221,0.087,0.413,0.119,0.565
	c0.82,3.864,3.839,6.884,7.703,7.705c0.239,0.051,0.512,0.108,0.804,0.17c0.108,0.023,0.226,0.047,0.341,0.071
	c0.202,0.042,0.41,0.085,0.633,0.132c0.153,0.032,0.31,0.064,0.473,0.098c0.203,0.042,0.414,0.085,0.631,0.129
	c0.201,0.041,0.398,0.081,0.611,0.125c0.192,0.039,0.396,0.08,0.598,0.12c0.469,0.094,0.962,0.193,1.48,0.295
	c0.187,0.037,0.366,0.073,0.559,0.111c0.296,0.058,0.608,0.119,0.919,0.179c0.203,0.039,0.404,0.079,0.612,0.119
	c0.337,0.065,0.682,0.131,1.034,0.198c0.197,0.038,0.397,0.076,0.598,0.114c0.37,0.07,0.741,0.14,1.124,0.212
	c0.185,0.035,0.375,0.07,0.563,0.105c1.352,0.251,2.782,0.511,4.28,0.776c0.204,0.036,0.406,0.072,0.613,0.108
	c0.442,0.077,0.89,0.155,1.342,0.233c0.23,0.04,0.462,0.079,0.695,0.119c0.466,0.08,0.934,0.159,1.41,0.238
	c0.203,0.034,0.409,0.068,0.614,0.102c1.641,0.272,3.332,0.543,5.061,0.808c0.214,0.033,0.426,0.066,0.642,0.098
	c0.501,0.076,1.005,0.151,1.512,0.226c0.26,0.038,0.52,0.076,0.781,0.115c0.503,0.073,1.007,0.145,1.514,0.217
	c0.258,0.036,0.517,0.072,0.775,0.108c0.526,0.073,1.05,0.146,1.579,0.217c0.066,0.009,0.132,0.017,0.198,0.026
	c1.146,0.153,2.297,0.3,3.451,0.441c0.261,0.032,0.522,0.065,0.784,0.096c0.486,0.058,0.972,0.114,1.458,0.169
	c0.315,0.036,0.63,0.072,0.944,0.107c0.474,0.052,0.947,0.103,1.419,0.153c0.325,0.034,0.649,0.067,0.973,0.099
	c0.468,0.047,0.936,0.095,1.402,0.139c0.333,0.032,0.663,0.06,0.994,0.09c0.787,0.071,1.57,0.137,2.348,0.198
	c0.379,0.03,0.759,0.061,1.136,0.088c0.403,0.029,0.802,0.055,1.202,0.081c0.382,0.025,0.762,0.05,1.141,0.072
	c0.389,0.023,0.775,0.044,1.16,0.064c0.391,0.02,0.779,0.038,1.165,0.055c0.366,0.016,0.732,0.032,1.093,0.045
	c0.457,0.016,0.907,0.028,1.357,0.039c0.382,0.009,0.764,0.019,1.14,0.024c0.532,0.008,1.061,0.014,1.58,0.014
	c0.05,0,0.097-0.001,0.147-0.001c0.271,0,0.536-0.005,0.804-0.008c0.419-0.004,0.835-0.01,1.245-0.021
	c0.286-0.007,0.57-0.015,0.851-0.025c0.411-0.014,0.814-0.033,1.214-0.054c0.242-0.012,0.487-0.023,0.724-0.038
	c0.604-0.038,1.195-0.083,1.77-0.137c0.167-0.016,0.326-0.036,0.49-0.053c0.433-0.045,0.859-0.094,1.273-0.149
	c0.201-0.027,0.398-0.056,0.595-0.085c0.385-0.057,0.76-0.119,1.128-0.186c0.168-0.03,0.338-0.059,0.501-0.092
	c0.515-0.102,1.017-0.211,1.491-0.334c1.585-0.411,3.352-0.921,5.234-1.573c8.917,7.927,16.093,17.712,20.928,28.602
	c0.636,1.421,1.133,2.609,1.565,3.74c0.006,0.015,0.012,0.03,0.017,0.046c2.424,6.257,4.075,12.768,4.927,19.416
	c-0.128,0.113-0.249,0.232-0.376,0.346c-0.341,0.307-0.68,0.617-1.011,0.933c-0.193,0.184-0.382,0.369-0.571,0.556
	c-0.312,0.308-0.619,0.619-0.922,0.935c-0.182,0.19-0.365,0.379-0.543,0.572c-0.317,0.341-0.625,0.688-0.931,1.038
	c-0.149,0.17-0.301,0.338-0.448,0.51c-0.445,0.523-0.881,1.054-1.301,1.594c-8.688-11.138-22.23-18.313-37.417-18.313
	c-12.666,0-24.579,4.931-33.556,13.894c-1.4,1.402-2.701,2.877-3.901,4.414c-8.688-11.136-22.228-18.308-37.413-18.308
	c-12.658,0-24.568,4.931-33.546,13.895c-1.4,1.402-2.701,2.876-3.901,4.413c-8.687-11.136-22.228-18.308-37.413-18.308
	c-12.672,0-24.584,4.933-33.546,13.895c-1.401,1.402-2.702,2.876-3.902,4.414c-8.689-11.136-22.233-18.309-37.421-18.309
	c-3.956,0-7.839,0.482-11.582,1.417c-8.235,2.058-15.793,6.315-21.965,12.477c-0.004,0.004-0.007,0.008-0.011,0.012
	c-0.23,0.231-0.458,0.463-0.683,0.697C110.267,176.811,112.389,168.457,115.797,160.499z M66.595,241.679
	c6.098-12.704,16.36-23.14,28.996-29.487c0.121,0.54,0.234,1.083,0.323,1.632c0.021,0.13,0.035,0.261,0.054,0.391
	c0.076,0.515,0.136,1.033,0.182,1.554c0.016,0.179,0.032,0.357,0.044,0.537c0.044,0.642,0.075,1.287,0.075,1.936
	c0,5.523,4.477,10,10,10c5.523,0,10-4.477,10-10c0-7.323,2.854-14.215,8.026-19.395c0.649-0.648,1.324-1.259,2.023-1.833
	c4.896-4.018,10.973-6.203,17.381-6.203c15.13,0,27.44,12.306,27.44,27.431c0,5.523,4.477,10,10,10s10-4.477,10-10
	c0-7.323,2.854-14.215,8.031-19.399c5.179-5.179,12.069-8.031,19.399-8.031c15.125,0,27.43,12.306,27.43,27.431
	c0,5.523,4.477,10,10,10c5.522,0,10-4.477,10-10c0-2.746,0.401-5.432,1.176-7.989c1.291-4.262,3.618-8.168,6.85-11.404
	c3.244-3.239,7.152-5.569,11.415-6.861c2.558-0.775,5.243-1.177,7.989-1.177c15.125,0,27.431,12.306,27.431,27.431
	c0,5.523,4.478,10,10,10s10-4.477,10-10c0-7.323,2.853-14.215,8.026-19.395c5.189-5.183,12.084-8.036,19.413-8.036
	c15.125,0,27.431,12.306,27.431,27.431c0,5.523,4.478,10,10,10s10-4.477,10-10c0-0.548,0.018-1.093,0.051-1.636
	c0.011-0.181,0.032-0.361,0.046-0.542c0.029-0.36,0.058-0.721,0.1-1.078c0.025-0.214,0.06-0.426,0.091-0.639
	c0.046-0.32,0.092-0.64,0.149-0.957c0.041-0.227,0.089-0.452,0.135-0.677c0.041-0.198,0.085-0.395,0.13-0.592
	c0.275,0.18,0.56,0.348,0.856,0.503c12.189,6.371,22.175,16.691,28.122,29.066c4.174,8.67,6.29,17.974,6.29,27.651
	c0,7.429-1.248,14.648-3.674,21.455c-1.788-3.224-3.816-6.285-6.044-9.177c-0.054-0.07-0.108-0.141-0.163-0.211
	c-0.326-0.419-0.655-0.836-0.989-1.248c-0.274-0.34-0.552-0.676-0.831-1.01c-0.13-0.154-0.258-0.309-0.389-0.462
	c-12.823-15.104-30.8-24.18-50.598-25.525c-0.044-0.003-0.088-0.007-0.132-0.01c-0.717-0.048-1.437-0.084-2.159-0.111
	c-0.137-0.005-0.274-0.013-0.411-0.018c-0.814-0.026-1.629-0.042-2.449-0.042h-0.001c-1.038,0-2.07,0.029-3.1,0.072
	c-0.272,0.011-0.544,0.026-0.815,0.04c-0.87,0.046-1.737,0.107-2.6,0.183c-0.165,0.015-0.33,0.025-0.494,0.041
	c-1.056,0.1-2.105,0.224-3.149,0.369c-0.102,0.014-0.203,0.031-0.305,0.046c-0.998,0.143-1.99,0.307-2.977,0.49
	c-0.081,0.015-0.162,0.029-0.243,0.044c-20.716,3.909-38.702,16.55-49.386,34.633c-2.471-4.172-5.354-8.125-8.652-11.774
	c-9.907-10.958-22.853-18.555-36.974-22.016c-0.361-0.089-0.722-0.178-1.084-0.261c-0.565-0.129-1.129-0.258-1.697-0.373
	c-0.899-0.185-1.803-0.354-2.711-0.506c-0.374-0.062-0.749-0.115-1.124-0.171c-0.832-0.125-1.667-0.236-2.507-0.333
	c-0.264-0.03-0.527-0.066-0.792-0.093c-1.08-0.112-2.166-0.195-3.256-0.259c-0.266-0.015-0.532-0.028-0.798-0.04
	c-1.139-0.054-2.281-0.091-3.43-0.091h-3.531c-1.149,0-2.291,0.037-3.43,0.091c-0.266,0.012-0.533,0.025-0.799,0.04
	c-1.09,0.064-2.176,0.147-3.256,0.259c-0.266,0.027-0.53,0.063-0.796,0.094c-0.836,0.096-1.669,0.207-2.498,0.332
	c-0.378,0.056-0.756,0.11-1.132,0.172c-0.906,0.151-1.807,0.32-2.703,0.504c-0.573,0.117-1.142,0.246-1.712,0.377
	c-0.355,0.082-0.708,0.168-1.06,0.256c-14.127,3.459-27.079,11.058-36.988,22.019c-3.298,3.648-6.181,7.602-8.653,11.774
	c-10.685-18.089-28.676-30.729-49.397-34.635c-0.072-0.014-0.145-0.026-0.217-0.04c-0.996-0.185-1.998-0.35-3.006-0.494
	c-0.095-0.014-0.19-0.029-0.285-0.043c-1.047-0.145-2.099-0.269-3.158-0.37c-0.161-0.015-0.324-0.026-0.485-0.04
	c-0.866-0.076-1.736-0.137-2.61-0.183c-0.27-0.014-0.541-0.029-0.812-0.04c-1.03-0.043-2.063-0.072-3.101-0.072
	c-0.819,0-1.634,0.016-2.448,0.042c-0.14,0.005-0.279,0.013-0.419,0.018c-0.719,0.027-1.435,0.064-2.149,0.111
	c-0.048,0.003-0.095,0.007-0.142,0.01c-19.792,1.346-37.765,10.42-50.585,25.518c-0.136,0.159-0.269,0.32-0.404,0.48
	c-0.275,0.329-0.548,0.659-0.817,0.993c-0.337,0.415-0.668,0.834-0.996,1.256c-0.052,0.068-0.104,0.135-0.157,0.204
	c-2.23,2.894-4.259,5.957-6.048,9.183c-2.425-6.807-3.673-14.027-3.673-21.457C60.3,259.645,62.415,250.344,66.595,241.679z
	 M310.991,329.017c-0.045,0.874-0.107,1.749-0.195,2.624L294.591,492H266V319.056c0-5.522-4.478-10-10-10c-5.523,0-10,4.478-10,10
	V492h-28.591l-16.205-160.358v0.001c-0.088-0.875-0.15-1.75-0.195-2.624c-0.024-0.488-0.03-0.98-0.041-1.471
	c-0.009-0.376-0.023-0.752-0.024-1.127c-0.001-0.569,0.016-1.141,0.033-1.713c0.009-0.312,0.014-0.625,0.029-0.937
	c0.025-0.522,0.064-1.044,0.104-1.567c0.403-5.202,1.55-10.308,3.42-15.147v-0.001c0.295-0.763,0.614-1.517,0.944-2.266
	c0.106-0.24,0.216-0.479,0.326-0.717c0.218-0.476,0.447-0.948,0.679-1.419c0.178-0.357,0.353-0.715,0.538-1.067
	c0.119-0.229,0.247-0.453,0.37-0.68c6.777-12.439,18.309-21.722,31.813-25.735c0.017-0.005,0.033-0.01,0.049-0.015
	c0.645-0.191,1.296-0.369,1.95-0.536c0.145-0.037,0.291-0.07,0.436-0.105c0.895-0.22,1.8-0.413,2.71-0.587
	c0.414-0.078,0.826-0.163,1.242-0.232c0.355-0.059,0.713-0.105,1.07-0.157c0.5-0.072,1.001-0.142,1.505-0.2
	c0.329-0.038,0.66-0.072,0.991-0.104c0.565-0.054,1.132-0.099,1.699-0.135c0.277-0.018,0.553-0.039,0.831-0.052
	c0.847-0.041,1.696-0.068,2.548-0.068h3.531c0.852,0,1.701,0.027,2.548,0.068c0.278,0.014,0.555,0.035,0.832,0.052
	c0.567,0.036,1.133,0.081,1.697,0.135c0.331,0.032,0.662,0.065,0.991,0.104c0.506,0.058,1.009,0.128,1.512,0.201
	c0.353,0.051,0.709,0.097,1.06,0.155c0.43,0.071,0.857,0.158,1.285,0.24c0.893,0.171,1.78,0.361,2.659,0.577
	c0.15,0.036,0.3,0.07,0.45,0.108c0.651,0.166,1.298,0.343,1.94,0.533c0.021,0.006,0.042,0.012,0.063,0.019
	c13.501,4.014,25.029,13.294,31.806,25.731c0.123,0.227,0.251,0.451,0.37,0.68c0.186,0.354,0.363,0.714,0.541,1.073
	c0.231,0.468,0.458,0.937,0.676,1.411c0.111,0.24,0.221,0.481,0.329,0.724c0.328,0.745,0.646,1.495,0.939,2.254
	c0.002,0.005,0.004,0.009,0.005,0.013c1.868,4.834,3.015,9.934,3.418,15.13c0.04,0.527,0.08,1.055,0.105,1.581
	c0.015,0.313,0.02,0.627,0.03,0.941c0.017,0.569,0.034,1.139,0.034,1.705c-0.001,0.379-0.015,0.758-0.024,1.137
	C311.021,328.043,311.015,328.532,310.991,329.017z M166.537,492l-30.372-127.75c-1.278-5.373-6.669-8.699-12.042-7.416
	c-5.373,1.277-8.693,6.668-7.416,12.041L145.98,492h-19.511l-48.97-149.084c-2.861-8.709-3.417-17.703-1.819-26.323
	c0.003-0.014,0.008-0.027,0.011-0.041c0.562-3.003,1.377-5.905,2.407-8.693c0.107-0.287,0.214-0.573,0.326-0.858
	c0.183-0.471,0.371-0.939,0.567-1.403c0.317-0.745,0.643-1.487,0.996-2.22c0.025-0.052,0.047-0.106,0.072-0.158
	c0.448-0.923,0.924-1.836,1.428-2.738c0.023-0.042,0.047-0.083,0.07-0.124c1.024-1.825,2.16-3.606,3.411-5.334
	c0.582-0.804,1.187-1.582,1.805-2.346c0.118-0.145,0.236-0.29,0.356-0.434c0.444-0.538,0.903-1.057,1.365-1.574
	c8.258-9.169,19.593-15.39,32.215-17.161c0.134-0.019,0.268-0.042,0.402-0.059c0.513-0.068,1.031-0.12,1.549-0.173
	c0.509-0.051,1.019-0.098,1.532-0.134c0.374-0.028,0.747-0.055,1.122-0.075c0.937-0.048,1.878-0.082,2.825-0.082
	c0.79,0,1.576,0.021,2.359,0.055c0.234,0.01,0.466,0.029,0.699,0.042c0.557,0.032,1.113,0.068,1.665,0.117
	c0.251,0.022,0.501,0.049,0.751,0.075c0.55,0.056,1.098,0.119,1.644,0.193c0.219,0.029,0.438,0.06,0.656,0.092
	c0.617,0.091,1.231,0.191,1.841,0.303c0.133,0.024,0.267,0.047,0.4,0.072c15.955,3.047,29.53,13.239,37.032,27.301
	c0.018,0.034,0.037,0.066,0.054,0.1c0.319,0.6,0.622,1.211,0.918,1.825c0.058,0.121,0.121,0.24,0.178,0.361
	c0.226,0.477,0.436,0.964,0.648,1.45c0.358,0.823,0.702,1.654,1.02,2.501c0.011,0.028,0.022,0.056,0.033,0.084
	c0.223,0.595,0.432,1.198,0.634,1.805c1.131,3.378,1.948,6.908,2.387,10.567l0.096,0.797c-0.017,0.223-0.021,0.445-0.036,0.668
	c-0.038,0.567-0.066,1.135-0.091,1.703c-0.026,0.606-0.045,1.211-0.057,1.815c-0.011,0.58-0.02,1.159-0.018,1.74
	c0.003,0.682,0.022,1.361,0.044,2.041c0.016,0.483,0.023,0.965,0.049,1.448c0.061,1.179,0.144,2.353,0.262,3.518l16,158.341H166.537
	z M434.5,342.916L385.531,492H366.02l29.273-123.125c1.277-5.373-2.042-10.764-7.415-12.041c-5.372-1.281-10.765,2.042-12.042,7.416
	L345.463,492h-30.77l9.79-96.884l6.211-61.464c0.001-0.006,0.001-0.013,0.001-0.019c0.117-1.158,0.199-2.324,0.26-3.495
	c0.026-0.489,0.034-0.977,0.049-1.465c0.021-0.673,0.04-1.346,0.043-2.022c0.003-0.585-0.006-1.169-0.018-1.753
	c-0.012-0.599-0.03-1.198-0.056-1.798c-0.025-0.574-0.053-1.148-0.092-1.721c-0.014-0.219-0.018-0.438-0.035-0.658l0.096-0.797
	c0.439-3.652,1.253-7.176,2.381-10.548c0.204-0.613,0.416-1.221,0.64-1.823c0.005-0.013,0.01-0.025,0.015-0.037
	c0.322-0.859,0.672-1.702,1.034-2.537c0.214-0.49,0.426-0.981,0.654-1.463c0.055-0.116,0.115-0.23,0.17-0.346
	c0.299-0.62,0.605-1.236,0.927-1.842c0.016-0.03,0.032-0.059,0.048-0.088c7.501-14.068,21.079-24.263,37.039-27.31
	c0.131-0.025,0.262-0.047,0.393-0.071c0.612-0.112,1.228-0.213,1.847-0.304c0.217-0.032,0.435-0.062,0.653-0.092
	c0.546-0.073,1.095-0.136,1.646-0.193c0.25-0.026,0.499-0.053,0.75-0.075c0.552-0.049,1.108-0.085,1.665-0.117
	c0.233-0.013,0.465-0.031,0.699-0.042c0.783-0.034,1.569-0.055,2.359-0.055c0.947,0,1.887,0.034,2.824,0.082
	c0.376,0.02,0.751,0.048,1.125,0.075c0.511,0.037,1.02,0.083,1.528,0.134c0.518,0.053,1.037,0.105,1.552,0.173
	c0.132,0.017,0.263,0.04,0.395,0.058c12.624,1.77,23.962,7.992,32.221,17.162c0.462,0.518,0.923,1.039,1.368,1.578
	c0.118,0.142,0.235,0.286,0.352,0.43c0.619,0.765,1.225,1.545,1.807,2.349c1.251,1.727,2.386,3.507,3.409,5.33
	c0.024,0.043,0.049,0.086,0.074,0.13c0.502,0.9,0.977,1.811,1.424,2.731c0.032,0.067,0.061,0.136,0.093,0.204
	c0.344,0.717,0.664,1.443,0.974,2.171c0.199,0.47,0.39,0.945,0.575,1.423c0.108,0.276,0.212,0.554,0.315,0.831
	c1.032,2.792,1.848,5.697,2.411,8.705c0.003,0.015,0.009,0.029,0.012,0.045C437.918,325.213,437.361,334.207,434.5,342.916z"/>
<g>
</g>
<g>
</g>
<g>
</g>
<g>
</g>
<g>
</g>
<g>
</g>
<g>
</g>
<g>
</g>
<g>
</g>
<g>
</g>
<g>
</g>
<g>
</g>
<g>
</g>
<g>
</g>
<g>
</g>
</svg>
